<svg width="258" height="51" viewBox="0 0 258 51" fill="none" xmlns="http://www.w3.org/2000/svg">
<path d="M0.263736 48.8887L0.131868 45.6559C4.17582 44.9961 6.68132 44.6442 7.64835 44.6003C7.69231 43.1048 7.71429 40.8616 7.71429 37.8706C7.71429 33.912 7.62637 28.216 7.45055 20.7827C7.27473 13.3053 7.16484 8.35705 7.12088 5.9379L0.461538 5.60802L0 1.78137C1.8022 1.82536 4.59341 1.84735 8.37363 1.84735C12.2418 1.84735 15.1209 1.86934 17.011 1.91332L17.2088 5.21216C16.4615 5.52005 15.4066 5.71798 14.044 5.80595C12.6813 5.84994 11.8242 5.89392 11.4725 5.9379C11.6044 7.16947 11.6703 10.2704 11.6703 15.2406C11.7143 20.2109 11.7363 25.7089 11.7363 31.7348C11.7363 37.7607 11.7802 42.0492 11.8681 44.6003C12.5714 44.7322 13.9121 44.8862 15.8901 45.0621C17.8681 45.238 19.0989 45.37 19.5824 45.458L19.4506 48.8887C18.1319 48.8448 16.044 48.8228 13.1868 48.8228C11.6923 48.8228 9.47253 48.8228 6.52747 48.8228C3.58242 48.8668 1.49451 48.8887 0.263736 48.8887Z" fill="black"/>
<path d="M21.5604 4.42044L20.9011 1.45149L46.0879 0C47.1868 0.0439845 48.1099 0.439845 48.8571 1.18758C49.6044 1.93532 49.978 2.74903 49.978 3.62872C49.978 4.20052 49.7582 4.70634 49.3187 5.14618C48.8791 5.58603 48.2198 5.84994 47.3407 5.9379L36.2637 5.34411C37.3626 20.8706 38.1758 34.9897 38.7033 47.7012C38.3077 49.0207 37.5604 49.6805 36.4615 49.6805C35.6703 49.6805 34.9011 49.3506 34.1538 48.6908C33.4066 48.075 32.9451 47.3053 32.7692 46.3816C32.8571 44.0065 32.9011 40.3997 32.9011 35.5615C32.9011 33.7581 32.8791 31.053 32.8352 27.4463C32.8352 23.8396 32.8352 21.1345 32.8352 19.3312C32.8352 14.097 32.9231 9.36869 33.0989 5.14618C28.1319 4.79431 24.2857 4.55239 21.5604 4.42044Z" fill="black"/>
<path d="M60 0.857697L65.011 1.18758C66.2418 6.64166 68.7692 14.3609 72.5934 24.3454C76.4176 34.2859 78.9451 41.7193 80.1758 46.6455C80.1758 47.9211 79.956 48.8668 79.5165 49.4825C79.0769 50.1423 78.5275 50.4722 77.8681 50.4722C77.2967 50.4722 76.7473 50.2303 76.2198 49.7464C75.7363 49.3066 75.4066 48.6688 75.2308 47.8331C74.8352 45.8978 73.5604 42.0272 71.4066 36.2212C62.3517 35.0776 56.6593 34.3739 54.3297 34.11C53.7582 35.6934 53.0549 38.2665 52.2198 41.8292C51.3846 45.392 50.7253 47.8551 50.2418 49.2186C49.5824 50.0104 48.8352 50.4062 48 50.4062C47.0769 50.4062 46.2857 49.9884 45.6264 49.1527C44.967 48.3609 44.6374 47.3713 44.6374 46.1837C46.044 41.0375 48.5934 33.4722 52.2857 23.4877C55.978 13.5032 58.5495 5.9599 60 0.857697ZM62.3077 7.52135C61.4286 12.8435 58.989 20.6507 54.989 30.9431H62.3736C65.7143 30.9431 68.5055 31.053 70.7473 31.273C66.2198 21.5524 63.4066 13.6352 62.3077 7.52135Z" fill="black"/>
<path d="M110.44 49.1527H104.637C103.187 47.7891 101.648 46.2277 100.022 44.4683C98.3956 42.7089 97.055 41.2135 96 39.9819C94.989 38.7503 93.5604 37.0129 91.7143 34.7697C89.9121 32.4825 88.6374 30.8771 87.8901 29.9534L88.7473 47.7671C88.3517 49.0867 87.5824 49.7464 86.4396 49.7464C85.6484 49.7464 84.8791 49.4166 84.1319 48.7568C83.4286 48.141 82.989 47.3713 82.8132 46.4476C82.9451 42.9289 83.0549 35.6274 83.1429 24.5433C83.2308 13.4593 83.4286 5.27814 83.7363 0L86.7033 0.659767C86.8352 2.85899 86.989 6.68564 87.1648 12.1397C87.3407 17.5498 87.4725 21.1565 87.5604 22.9599C88.3077 22.0362 89.6923 20.3428 91.7143 17.8797C93.7802 15.3726 95.1868 13.6792 95.9341 12.7995C96.7253 11.8758 97.8462 10.5563 99.2967 8.84088C100.791 7.12549 102.154 5.63001 103.385 4.35446C104.615 3.07891 105.934 1.78137 107.341 0.461837L109.319 3.6947C107.736 6.33376 101.604 13.8111 90.9231 26.1268C92.4615 27.7542 95.6264 31.5369 100.418 37.4748C105.253 43.4127 108.593 47.3053 110.44 49.1527Z" fill="black"/>
<path d="M114.132 1.31953L117.099 0.527814C117.099 1.93532 117.121 2.72704 117.165 2.90298C119.67 1.23157 123.187 0.39586 127.714 0.39586C132.593 0.39586 136.242 1.93532 138.659 5.01423C141.077 8.04916 142.286 12.3157 142.286 17.8137C142.286 22.696 141.099 26.7426 138.725 29.9534C136.352 33.1643 132.769 34.7697 127.978 34.7697C127.187 34.7697 124.022 34.5058 118.484 33.978C118.571 37.1889 118.747 42.1811 119.011 48.9547C118.615 50.3182 117.846 51 116.703 51C115.912 51 115.143 50.6701 114.396 50.0104C113.692 49.3946 113.253 48.6248 113.077 47.7012C113.209 44.0065 113.341 36.815 113.473 26.1268C113.648 15.4386 113.868 7.16947 114.132 1.31953ZM117.758 7.32342L118.286 27.9082C120.703 29.2277 123.495 29.8875 126.659 29.8875C129.692 29.8875 132.264 28.7439 134.374 26.4567C136.484 24.1695 137.538 21.3765 137.538 18.0776C137.538 14.5149 136.44 11.304 134.242 8.44502C132.044 5.58603 129.297 4.15653 126 4.15653C123.319 4.15653 120.571 5.21216 117.758 7.32342Z" fill="black"/>
<path d="M143.143 48.8887L143.011 45.6559C147.055 44.9961 149.56 44.6442 150.527 44.6003C150.571 43.1048 150.593 40.8616 150.593 37.8706C150.593 33.912 150.506 28.216 150.33 20.7827C150.154 13.3053 150.044 8.35705 150 5.9379L143.341 5.60802L142.879 1.78137C144.681 1.82536 147.473 1.84735 151.253 1.84735C155.121 1.84735 158 1.86934 159.89 1.91332L160.088 5.21216C159.341 5.52005 158.286 5.71798 156.923 5.80595C155.56 5.84994 154.703 5.89392 154.352 5.9379C154.484 7.16947 154.549 10.2704 154.549 15.2406C154.593 20.2109 154.615 25.7089 154.615 31.7348C154.615 37.7607 154.659 42.0492 154.747 44.6003C155.451 44.7322 156.791 44.8862 158.769 45.0621C160.747 45.238 161.978 45.37 162.462 45.458L162.33 48.8887C161.011 48.8448 158.923 48.8228 156.066 48.8228C154.571 48.8228 152.352 48.8228 149.407 48.8228C146.462 48.8668 144.374 48.8887 143.143 48.8887Z" fill="black"/>
<path d="M191.802 44.7322L191.934 48.7568C189.385 48.8448 187.407 48.8887 186 48.8887C184.066 48.8887 181.187 48.8448 177.363 48.7568C173.582 48.6688 170.813 48.6248 169.055 48.6248C167.736 48.6248 166.066 48.6688 164.044 48.7568L164.44 45.1941C164.571 43.9625 166.066 40.9056 168.923 36.0233C171.824 31.097 175.363 25.3131 179.538 18.6714C183.714 12.0298 186.308 7.82924 187.319 6.06986C185.736 5.98189 183.297 5.89392 180 5.80595C176.747 5.71798 173.758 5.60802 171.033 5.47607C168.352 5.34411 165.934 5.19017 163.78 5.01423V1.45149H165.758C166.022 1.45149 175.143 1.29754 193.121 0.989651V6.20181L172.484 43.8745C174.418 44.0065 177.648 44.1604 182.176 44.3364C186.703 44.5123 189.912 44.6442 191.802 44.7322Z" fill="black"/>
<path d="M221.143 44.7322L221.275 48.7568C218.725 48.8448 216.747 48.8887 215.341 48.8887C213.407 48.8887 210.527 48.8448 206.703 48.7568C202.923 48.6688 200.154 48.6248 198.396 48.6248C197.077 48.6248 195.407 48.6688 193.385 48.7568L193.78 45.1941C193.912 43.9625 195.407 40.9056 198.264 36.0233C201.165 31.097 204.703 25.3131 208.879 18.6714C213.055 12.0298 215.648 7.82924 216.659 6.06986C215.077 5.98189 212.637 5.89392 209.341 5.80595C206.088 5.71798 203.099 5.60802 200.374 5.47607C197.692 5.34411 195.275 5.19017 193.121 5.01423V1.45149H195.099C195.363 1.45149 204.484 1.29754 222.462 0.989651V6.20181L201.824 43.8745C203.758 44.0065 206.989 44.1604 211.516 44.3364C216.044 44.5123 219.253 44.6442 221.143 44.7322Z" fill="black"/>
<path d="M237.824 0.857697L242.835 1.18758C244.066 6.64166 246.593 14.3609 250.418 24.3454C254.242 34.2859 256.769 41.7193 258 46.6455C258 47.9211 257.78 48.8668 257.341 49.4825C256.901 50.1423 256.352 50.4722 255.692 50.4722C255.121 50.4722 254.571 50.2303 254.044 49.7464C253.56 49.3066 253.231 48.6688 253.055 47.8331C252.659 45.8978 251.385 42.0272 249.231 36.2212C240.176 35.0776 234.484 34.3739 232.154 34.11C231.582 35.6934 230.879 38.2665 230.044 41.8292C229.209 45.392 228.549 47.8551 228.066 49.2186C227.407 50.0104 226.659 50.4062 225.824 50.4062C224.901 50.4062 224.11 49.9884 223.451 49.1527C222.791 48.3609 222.462 47.3713 222.462 46.1837C223.868 41.0375 226.418 33.4722 230.11 23.4877C233.802 13.5032 236.374 5.9599 237.824 0.857697ZM240.132 7.52135C239.253 12.8435 236.813 20.6507 232.813 30.9431H240.198C243.538 30.9431 246.33 31.053 248.571 31.273C244.044 21.5524 241.231 13.6352 240.132 7.52135Z" fill="black"/>
</svg>
